<svg width="22" height="22" viewBox="0 0 22 22" fill="none" xmlns="http://www.w3.org/2000/svg">
<g clip-path="url(#clip0_1_552)">
<path d="M11 20.1667C16.0628 20.1667 20.1667 16.0628 20.1667 11C20.1667 5.93726 16.0628 1.83334 11 1.83334C5.93729 1.83334 1.83337 5.93726 1.83337 11C1.83337 16.0628 5.93729 20.1667 11 20.1667Z" stroke="#9796A1" stroke-width="4" stroke-linejoin="round"/>
<path d="M6.41675 12.375C7.17614 12.375 7.79175 11.7594 7.79175 11C7.79175 10.2406 7.17614 9.625 6.41675 9.625C5.65736 9.625 5.04175 10.2406 5.04175 11C5.04175 11.7594 5.65736 12.375 6.41675 12.375Z" fill="#9796A1"/>
<path d="M11 12.375C11.7594 12.375 12.375 11.7594 12.375 11C12.375 10.2406 11.7594 9.625 11 9.625C10.2406 9.625 9.625 10.2406 9.625 11C9.625 11.7594 10.2406 12.375 11 12.375Z" fill="#9796A1"/>
<path d="M15.5834 12.375C16.3428 12.375 16.9584 11.7594 16.9584 11C16.9584 10.2406 16.3428 9.625 15.5834 9.625C14.824 9.625 14.2084 10.2406 14.2084 11C14.2084 11.7594 14.824 12.375 15.5834 12.375Z" fill="#9796A1"/>
</g>
<defs>
<clipPath id="clip0_1_552">
<rect width="22" height="22" fill="white"/>
</clipPath>
</defs>
</svg>
